<svg width="15" height="17" viewBox="0 0 13 14" fill="none" xmlns="http://www.w3.org/2000/svg">
<path d="M1.44445 14C1.04722 14 0.707057 13.8628 0.423945 13.5884C0.140834 13.314 -0.000480255 12.9845 1.22618e-06 12.6V2.8C1.22618e-06 2.415 0.141557 2.0853 0.424668 1.8109C0.707779 1.5365 1.0477 1.39953 1.44445 1.4H2.16667V0H3.61111V1.4H9.38889V0H10.8333V1.4H11.5556C11.9528 1.4 12.2929 1.5372 12.5761 1.8116C12.8592 2.086 13.0005 2.41547 13 2.8V12.6C13 12.985 12.8584 13.3147 12.5753 13.5891C12.2922 13.8635 11.9523 14.0005 11.5556 14H1.44445ZM1.44445 12.6H11.5556V5.6H1.44445V12.6ZM1.44445 4.2H11.5556V2.8H1.44445V4.2ZM6.5 8.4C6.29537 8.4 6.12372 8.3328 5.98506 8.1984C5.84639 8.064 5.7773 7.89787 5.77778 7.7C5.77778 7.50167 5.84711 7.3353 5.98578 7.2009C6.12444 7.0665 6.29585 6.99953 6.5 7C6.70463 7 6.87628 7.0672 7.01494 7.2016C7.15361 7.336 7.2227 7.50213 7.22222 7.7C7.22222 7.89833 7.15289 8.0647 7.01422 8.1991C6.87556 8.3335 6.70415 8.40047 6.5 8.4ZM3.61111 8.4C3.40648 8.4 3.23483 8.3328 3.09617 8.1984C2.9575 8.064 2.88841 7.89787 2.88889 7.7C2.88889 7.50167 2.95822 7.3353 3.09689 7.2009C3.23556 7.0665 3.40696 6.99953 3.61111 7C3.81574 7 3.98739 7.0672 4.12606 7.2016C4.26472 7.336 4.33382 7.50213 4.33333 7.7C4.33333 7.89833 4.264 8.0647 4.12533 8.1991C3.98667 8.3335 3.81526 8.40047 3.61111 8.4ZM9.38889 8.4C9.18426 8.4 9.01261 8.3328 8.87394 8.1984C8.73528 8.064 8.66619 7.89787 8.66667 7.7C8.66667 7.50167 8.736 7.3353 8.87467 7.2009C9.01333 7.0665 9.18474 6.99953 9.38889 7C9.59352 7 9.76517 7.0672 9.90383 7.2016C10.0425 7.336 10.1116 7.50213 10.1111 7.7C10.1111 7.89833 10.0418 8.0647 9.90311 8.1991C9.76444 8.3335 9.59304 8.40047 9.38889 8.4ZM6.5 11.2C6.29537 11.2 6.12372 11.1328 5.98506 10.9984C5.84639 10.864 5.7773 10.6979 5.77778 10.5C5.77778 10.3017 5.84711 10.1353 5.98578 10.0009C6.12444 9.8665 6.29585 9.79953 6.5 9.8C6.70463 9.8 6.87628 9.8672 7.01494 10.0016C7.15361 10.136 7.2227 10.3021 7.22222 10.5C7.22222 10.6983 7.15289 10.8647 7.01422 10.9991C6.87556 11.1335 6.70415 11.2005 6.5 11.2ZM3.61111 11.2C3.40648 11.2 3.23483 11.1328 3.09617 10.9984C2.9575 10.864 2.88841 10.6979 2.88889 10.5C2.88889 10.3017 2.95822 10.1353 3.09689 10.0009C3.23556 9.8665 3.40696 9.79953 3.61111 9.8C3.81574 9.8 3.98739 9.8672 4.12606 10.0016C4.26472 10.136 4.33382 10.3021 4.33333 10.5C4.33333 10.6983 4.264 10.8647 4.12533 10.9991C3.98667 11.1335 3.81526 11.2005 3.61111 11.2ZM9.38889 11.2C9.18426 11.2 9.01261 11.1328 8.87394 10.9984C8.73528 10.864 8.66619 10.6979 8.66667 10.5C8.66667 10.3017 8.736 10.1353 8.87467 10.0009C9.01333 9.8665 9.18474 9.79953 9.38889 9.8C9.59352 9.8 9.76517 9.8672 9.90383 10.0016C10.0425 10.136 10.1116 10.3021 10.1111 10.5C10.1111 10.6983 10.0418 10.8647 9.90311 10.9991C9.76444 11.1335 9.59304 11.2005 9.38889 11.2Z" fill="black" fill-opacity="1"/>
</svg>
