<svg width="17" height="14" viewBox="0 0 17 14" fill="none" xmlns="http://www.w3.org/2000/svg">
<path d="M1.54545 9.33333H9.27273C9.47767 9.33333 9.67421 9.41528 9.81913 9.56114C9.96404 9.707 10.0455 9.90483 10.0455 10.1111C10.0455 10.3174 9.96404 10.5152 9.81913 10.6611C9.67421 10.8069 9.47767 10.8889 9.27273 10.8889H1.54545C1.34051 10.8889 1.14397 10.8069 0.999054 10.6611C0.854139 10.5152 0.772727 10.3174 0.772727 10.1111C0.772727 9.90483 0.854139 9.707 0.999054 9.56114C1.14397 9.41528 1.34051 9.33333 1.54545 9.33333ZM11.5909 9.33333H15.4545C15.6595 9.33333 15.856 9.41528 16.0009 9.56114C16.1459 9.707 16.2273 9.90483 16.2273 10.1111C16.2273 10.3174 16.1459 10.5152 16.0009 10.6611C15.856 10.8069 15.6595 10.8889 15.4545 10.8889H11.5909C11.386 10.8889 11.1894 10.8069 11.0445 10.6611C10.8996 10.5152 10.8182 10.3174 10.8182 10.1111C10.8182 9.90483 10.8996 9.707 11.0445 9.56114C11.1894 9.41528 11.386 9.33333 11.5909 9.33333ZM0 7C0 5.9686 0.407061 4.97945 1.13163 4.25014C1.85621 3.52083 2.83894 3.11111 3.86364 3.11111C4.63636 1.28333 6.41364 0 8.5 0C11.1505 0 13.3218 2.06889 13.5227 4.69L13.9091 4.66667C15.6014 4.66667 16.9768 6.03556 17 7.77778H15.4545C15.4545 7.36522 15.2917 6.96956 15.0019 6.67783C14.7121 6.38611 14.319 6.22222 13.9091 6.22222H12.3636V5.44444C12.3636 4.41305 11.9566 3.42389 11.232 2.69458C10.5074 1.96528 9.5247 1.55556 8.5 1.55556C6.56818 1.55556 4.98409 2.97111 4.68273 4.81444C4.42773 4.72111 4.14955 4.66667 3.86364 4.66667C3.24882 4.66667 2.65918 4.9125 2.22443 5.35008C1.78969 5.78767 1.54545 6.38116 1.54545 7C1.54506 7.26488 1.58949 7.5279 1.67682 7.77778H0.0772727L0 7ZM1.54545 12.4444H3.09091C3.29585 12.4444 3.4924 12.5264 3.63731 12.6722C3.78222 12.8181 3.86364 13.0159 3.86364 13.2222C3.86364 13.4285 3.78222 13.6263 3.63731 13.7722C3.4924 13.9181 3.29585 14 3.09091 14H1.54545C1.34051 14 1.14397 13.9181 0.999054 13.7722C0.854139 13.6263 0.772727 13.4285 0.772727 13.2222C0.772727 13.0159 0.854139 12.8181 0.999054 12.6722C1.14397 12.5264 1.34051 12.4444 1.54545 12.4444ZM5.40909 12.4444H15.4545C15.6595 12.4444 15.856 12.5264 16.0009 12.6722C16.1459 12.8181 16.2273 13.0159 16.2273 13.2222C16.2273 13.4285 16.1459 13.6263 16.0009 13.7722C15.856 13.9181 15.6595 14 15.4545 14H5.40909C5.20415 14 5.0076 13.9181 4.86269 13.7722C4.71778 13.6263 4.63636 13.4285 4.63636 13.2222C4.63636 13.0159 4.71778 12.8181 4.86269 12.6722C5.0076 12.5264 5.20415 12.4444 5.40909 12.4444Z" fill="white"/>
</svg>
