<svg width="16" height="16" viewBox="0 0 16 16" fill="none" xmlns="http://www.w3.org/2000/svg">
<path d="M10.2077 0.0317154C11.8626 0.538554 13.3155 1.55432 14.3596 2.93446C15.2718 4.14619 15.8281 5.58811 15.9661 7.09839C16.1042 8.60867 15.8185 10.1275 15.1411 11.4845C14.4637 12.8414 13.4214 13.9828 12.1312 14.7804C10.841 15.578 9.35404 16.0003 7.83714 16C6.06658 16.0054 4.34313 15.43 2.93119 14.3619C1.55074 13.318 0.53475 11.8655 0.0277979 10.2109C-0.00578701 10.1019 -0.00900302 9.98576 0.0184958 9.87502C0.0459947 9.76428 0.103168 9.66313 0.183867 9.58245C0.264566 9.50177 0.365737 9.44461 0.4765 9.41712C0.587263 9.38962 0.703426 9.39284 0.812498 9.42642C2.0095 9.78821 3.28226 9.81854 4.49515 9.51419C5.70804 9.20983 6.81561 8.58219 7.69985 7.69814C8.5841 6.8141 9.21188 5.70677 9.5163 4.49415C9.82072 3.28153 9.79038 2.00906 9.42851 0.812319C9.39492 0.703271 9.39171 0.587132 9.41921 0.476394C9.4467 0.365656 9.50388 0.264507 9.58458 0.183825C9.66528 0.103145 9.76645 0.0459843 9.87721 0.0184917C9.98797 -0.00900078 10.1041 -0.00578499 10.2132 0.027792L10.2077 0.0317154Z" fill="#FFD388"/>
</svg>
