<svg width="20" height="12" viewBox="0 0 20 12" fill="none" xmlns="http://www.w3.org/2000/svg">
<path d="M10 12C9.36667 12 8.754 11.9123 8.162 11.737C7.57 11.5617 7.02433 11.3077 6.525 10.975C5.79167 10.925 5.04167 10.7667 4.275 10.5C3.50833 10.2333 2.80833 9.79167 2.175 9.175C1.54167 8.55834 1.021 7.75 0.613 6.75C0.205 5.75 0.000666667 4.5 0 3V2.5C0 1.8 0.241667 1.20833 0.725 0.725001C1.20833 0.241668 1.8 1.50602e-06 2.5 1.50602e-06C3.15 1.50602e-06 3.71267 0.225002 4.188 0.675002C4.66333 1.125 4.92533 1.66667 4.974 2.3C5.44067 2.16667 5.85733 2 6.224 1.8C6.59067 1.6 6.96567 1.40833 7.349 1.225C7.73233 1.025 8.13233 0.854335 8.549 0.713001C8.96567 0.571668 9.44933 0.500668 10 0.500001C10.5667 0.500001 11.0543 0.571001 11.463 0.713001C11.8717 0.855001 12.2673 1.02567 12.65 1.225C13.0167 1.40833 13.3877 1.6 13.763 1.8C14.1383 2 14.559 2.16667 15.025 2.3C15.075 1.65 15.3377 1.104 15.813 0.662002C16.2883 0.220002 16.8507 -0.000665161 17.5 1.50602e-06C18.2 1.50602e-06 18.7917 0.241668 19.275 0.725001C19.7583 1.20833 20 1.8 20 2.5V3C20 4.5 19.7957 5.75 19.387 6.75C18.9783 7.75 18.4577 8.55834 17.825 9.175C17.1917 9.79167 16.4917 10.2333 15.725 10.5C14.9583 10.7667 14.2083 10.925 13.475 10.975C12.975 11.3083 12.4293 11.5627 11.838 11.738C11.2467 11.9133 10.634 12.0007 10 12ZM4.5 8.975C4.18333 8.475 3.93733 7.92934 3.762 7.338C3.58667 6.74667 3.49933 6.134 3.5 5.5V2.5C3.5 2.21667 3.404 1.979 3.212 1.787C3.02 1.595 2.78267 1.49933 2.5 1.5C2.21667 1.5 1.979 1.596 1.787 1.788C1.595 1.98 1.49933 2.21733 1.5 2.5V3C1.5 4.83333 1.80833 6.2 2.425 7.1C3.04167 8 3.73333 8.625 4.5 8.975ZM15.5 8.975C16.2667 8.625 16.9583 8 17.575 7.1C18.1917 6.2 18.5 4.83333 18.5 3V2.5C18.5 2.21667 18.404 1.979 18.212 1.787C18.02 1.595 17.7827 1.49933 17.5 1.5C17.2167 1.5 16.979 1.596 16.787 1.788C16.595 1.98 16.4993 2.21733 16.5 2.5V5.5C16.5 6.13333 16.4167 6.746 16.25 7.338C16.0833 7.93 15.8333 8.47567 15.5 8.975ZM7.7 5C7.9 4.91667 8.07933 4.829 8.238 4.737C8.39667 4.645 8.55067 4.55767 8.7 4.475C8.93333 4.34167 9.146 4.22933 9.338 4.138C9.53 4.04667 9.75067 4.00067 10 4C10.25 4 10.471 4.046 10.663 4.138C10.855 4.23 11.0673 4.34234 11.3 4.475C11.45 4.55834 11.6043 4.65 11.763 4.75C11.9217 4.85 12.1007 4.94167 12.3 5.025C12.4833 5.10833 12.646 5.096 12.788 4.988C12.93 4.88 13.0007 4.71733 13 4.5C13 4.41667 12.975 4.33733 12.925 4.262C12.875 4.18667 12.8083 4.13267 12.725 4.1C12.5417 4.01667 12.375 3.93734 12.225 3.862C12.075 3.78667 11.9333 3.70767 11.8 3.625C11.5333 3.45833 11.2623 3.31234 10.987 3.187C10.7117 3.06167 10.3827 2.99933 10 3C9.61667 3 9.28733 3.06267 9.012 3.188C8.73667 3.31333 8.45767 3.459 8.175 3.625C8.04167 3.70833 7.904 3.78334 7.762 3.85C7.62 3.91667 7.45767 3.99167 7.275 4.075C7.19167 4.10833 7.125 4.171 7.075 4.263C7.025 4.355 7 4.442 7 4.524C7 4.74067 7.071 4.89467 7.213 4.986C7.355 5.07733 7.51733 5.082 7.7 5Z" fill="white"/>
</svg>
